<svg width="49" height="48" viewBox="0 0 49 48" fill="none" xmlns="http://www.w3.org/2000/svg">
<path d="M11 7C9.067 7 7.5 8.567 7.5 10.5V16.5C7.5 17.3284 6.82843 18 6 18C5.17157 18 4.5 17.3284 4.5 16.5V10.5C4.5 6.91015 7.41015 4 11 4H17C17.8284 4 18.5 4.67157 18.5 5.5C18.5 6.32843 17.8284 7 17 7H11ZM11 41C9.067 41 7.5 39.433 7.5 37.5V31.5C7.5 30.6716 6.82843 30 6 30C5.17157 30 4.5 30.6716 4.5 31.5V37.5C4.5 41.0898 7.41015 44 11 44H17C17.8284 44 18.5 43.3284 18.5 42.5C18.5 41.6716 17.8284 41 17 41H11ZM41.5 10.5C41.5 8.567 39.933 7 38 7H32C31.1716 7 30.5 6.32843 30.5 5.5C30.5 4.67157 31.1716 4 32 4H38C41.5898 4 44.5 6.91015 44.5 10.5V16.5C44.5 17.3284 43.8284 18 43 18C42.1716 18 41.5 17.3284 41.5 16.5V10.5ZM38 41C39.933 41 41.5 39.433 41.5 37.5V31.5C41.5 30.6716 42.1716 30 43 30C43.8284 30 44.5 30.6716 44.5 31.5V37.5C44.5 41.0898 41.5898 44 38 44H32C31.1716 44 30.5 43.3284 30.5 42.5C30.5 41.6716 31.1716 41 32 41H38ZM14.5 15.5C14.5 14.6716 15.1716 14 16 14H33C33.8284 14 34.5 14.6716 34.5 15.5V18C34.5 18.8284 33.8284 19.5 33 19.5C32.1716 19.5 31.5 18.8284 31.5 18V17H26V31H29C29.8284 31 30.5 31.6716 30.5 32.5C30.5 33.3284 29.8284 34 29 34H20C19.1716 34 18.5 33.3284 18.5 32.5C18.5 31.6716 19.1716 31 20 31H23V17H17.5V18C17.5 18.8284 16.8284 19.5 16 19.5C15.1716 19.5 14.5 18.8284 14.5 18V15.5Z" fill="#242424"/>
</svg>
