<svg width="48" height="48" viewBox="0 0 48 48" fill="none" xmlns="http://www.w3.org/2000/svg">
<path d="M4 10.5C4 6.91015 6.91015 4 10.5 4H29.5C33.0898 4 36 6.91015 36 10.5V16H33V10.5C33 8.567 31.433 7 29.5 7H10.5C8.567 7 7 8.567 7 10.5V25.5C7 27.433 8.567 29 10.5 29H16V32H10.5C6.91015 32 4 29.0898 4 25.5V10.5ZM38 26.5C38 27.8807 36.8807 29 35.5 29C34.1193 29 33 27.8807 33 26.5C33 25.1193 34.1193 24 35.5 24C36.8807 24 38 25.1193 38 26.5ZM18 24.5C18 20.9101 20.9101 18 24.5 18H37.5C41.0898 18 44 20.9101 44 24.5V37.5C44 41.0898 41.0898 44 37.5 44H24.5C20.9101 44 18 41.0898 18 37.5V24.5ZM24.5 21C22.567 21 21 22.567 21 24.5V37.5C21 37.8786 21.0601 38.2431 21.1713 38.5846L27.96 32.2137C29.69 30.5954 32.3784 30.5954 34.1084 32.2137L40.8492 38.5195C40.9473 38.197 41 37.8546 41 37.5V24.5C41 22.567 39.433 21 37.5 21H24.5ZM24.5 41H37.5C37.9708 41 38.4198 40.9071 38.8298 40.7385L32.0589 34.4046C31.4823 33.8651 30.5861 33.8651 30.0095 34.4046L23.2334 40.7638C23.6262 40.9163 24.0533 41 24.5 41ZM11.5 10C12.3284 10 13 10.6716 13 11.5V12.5C13 13.3284 12.3284 14 11.5 14C10.6716 14 10 13.3284 10 12.5V11.5C10 10.6716 10.6716 10 11.5 10ZM13 17.5C13 16.6716 12.3284 16 11.5 16C10.6716 16 10 16.6716 10 17.5V18.5C10 19.3284 10.6716 20 11.5 20C12.3284 20 13 19.3284 13 18.5V17.5ZM28.5 10C29.3284 10 30 10.6716 30 11.5V12.5C30 13.3284 29.3284 14 28.5 14C27.6716 14 27 13.3284 27 12.5V11.5C27 10.6716 27.6716 10 28.5 10ZM13 23.5C13 22.6716 12.3284 22 11.5 22C10.6716 22 10 22.6716 10 23.5V24.5C10 25.3284 10.6716 26 11.5 26C12.3284 26 13 25.3284 13 24.5V23.5Z" fill="#242424"/>
</svg>
