<svg width="293" height="500" viewBox="0 0 293 500" fill="none" xmlns="http://www.w3.org/2000/svg">
<path d="M465.666 250.007V250.007ZM465.666 250.007L465.934 252.077L466.736 254.163L468.06 256.281L469.889 258.448L472.196 260.676L474.947 262.98L478.094 265.37L481.581 267.853L485.338 270.434L489.282 273.114L493.316 275.888L497.331 278.747L501.205 281.675L504.805 284.649L507.997 287.642L510.64 290.62L512.602 293.543L513.759 296.369L514.01 299.055L513.274 301.555L511.504 303.831L508.686 305.846L504.843 307.574L500.033 308.997L494.349 310.106L487.91 310.906L480.855 311.412L473.339 311.645L465.52 311.639L457.556 311.431L449.596 311.064L441.778 310.581L434.223 310.028L427.035 309.45L420.304 308.89L414.101 308.39L408.484 307.988L403.501 307.724L399.192 307.635L395.592 307.758L392.734 308.133L390.654 308.801L389.396 309.81L389.012 311.215L389.572 313.082L391.167 315.49L393.917 318.542L397.98 322.363L403.567 327.12L410.958 333.025L420.529 340.364L432.786 349.515L427.792 348.91L414.625 343.297L404.19 339.027L395.951 335.87L389.508 333.66L384.561 332.272L380.879 331.612L378.285 331.615L376.644 332.231L375.846 333.425L375.806 335.172L376.454 337.457L377.729 340.266L379.578 343.589L381.952 347.417L384.799 351.737L388.067 356.533L391.697 361.779L395.624 367.442L399.772 373.477L404.058 379.826L408.387 386.416L412.659 393.16L416.763 399.959L420.588 406.7L424.023 413.266L426.965 419.533L429.318 425.382L431.006 430.701L431.973 435.394L432.185 439.383L431.637 442.616L430.347 445.067L428.36 446.737L425.74 447.657L422.568 447.878L418.937 447.473L414.946 446.532L410.696 445.152L406.284 443.437L401.801 441.491L397.329 439.417L392.94 437.31L388.693 435.258L384.637 433.339L380.811 431.624L377.243 430.172L373.952 429.034L370.95 428.254L368.242 427.866L365.827 427.898L363.7 428.373L361.85 429.305L360.265 430.703L358.927 432.572L357.816 434.909L356.909 437.703L356.18 440.937L355.598 444.584L355.132 448.605L354.743 452.953L354.393 457.565L354.039 462.365L353.636 467.264L353.136 472.158L352.493 476.931L351.66 481.454L350.594 485.593L349.258 489.212L347.621 492.176L345.661 494.362L343.367 495.665L340.742 496L337.8 495.315L334.568 493.591L331.084 490.843L327.395 487.123L323.556 482.516L319.623 477.134L315.653 471.111L311.704 464.595L307.824 457.741L304.058 450.702L300.441 443.629L297.002 436.657L293.76 429.912L290.726 423.501L287.905 417.52L285.295 412.046L282.891 407.148L280.682 402.883L278.654 399.303L276.792 396.457L275.078 394.393L273.494 393.166L272.02 392.84L270.634 393.494L269.314 395.226L268.034 398.165L266.768 402.477L265.481 408.378L264.135 416.154L262.681 426.186L261.057 438.979L259.181 455.219L257.257 441.314L255.599 428.023L254.123 417.59L252.763 409.482L251.469 403.304L250.202 398.755L248.926 395.61L247.614 393.695L246.241 392.877L244.782 393.052L243.217 394.14L241.525 396.074L239.688 398.8L237.687 402.266L235.508 406.425L233.135 411.226L230.559 416.612L227.772 422.518L224.772 428.866L221.562 435.565L218.153 442.508L214.564 449.574L210.819 456.628L206.955 463.522L203.013 470.102L199.043 476.214L195.1 481.708L191.242 486.446L187.526 490.314L184.006 493.221L180.731 495.11L177.74 495.96L175.064 495.785L172.717 494.631L170.704 492.579L169.016 489.731L167.634 486.208L166.528 482.142L165.661 477.671L164.99 472.93L164.471 468.047L164.055 463.141L163.696 458.319L163.348 453.671L162.969 449.277L162.517 445.2L161.956 441.491L161.252 438.19L160.376 435.324L159.299 432.913L157.999 430.969L156.454 429.496L154.647 428.49L152.565 427.944L150.196 427.842L147.535 428.165L144.58 428.885L141.335 429.968L137.81 431.373L134.023 433.05L130.002 434.941L125.782 436.977L121.411 439.081L116.948 441.167L112.461 443.14L108.032 444.898L103.75 446.339L99.7116 447.357L96.0168 447.853L92.7654 447.737L90.0515 446.933L87.9587 445.384L86.5544 443.059L85.886 439.949L85.9769 436.078L86.8247 431.493L88.4011 426.267L90.6532 420.495L93.5068 414.287L96.8706 407.761L100.641 401.039L104.708 394.242L108.96 387.482L113.287 380.861L117.587 374.469L121.763 368.38L125.73 362.654L129.412 357.339L132.742 352.47L135.66 348.072L138.112 344.165L140.048 340.761L141.418 337.869L142.169 335.501L142.243 333.666L141.572 332.383L140.071 331.673L137.638 331.57L134.14 332.12L129.407 333.387L123.221 335.459L115.292 338.454L105.238 342.534L92.5496 347.914L83.0059 351.172L95.7487 341.688L105.709 334.089L113.419 327.977L119.273 323.053L123.563 319.095L126.51 315.93L128.28 313.427L128.999 311.48L128.76 310.006L127.637 308.938L125.685 308.219L122.948 307.8L119.464 307.64L115.265 307.698L110.388 307.936L104.869 308.318L98.7556 308.805L92.1038 309.359L84.9837 309.937L77.4805 310.496L69.6963 310.993L61.7503 311.382L53.7772 311.619L45.9248 311.66L38.3496 311.466L31.211 311.006L24.6636 310.254L18.8506 309.194L13.8949 307.821L9.893 306.141L6.90915 304.17L4.97207 301.934L4.07395 299.466L4.17191 296.808L5.1917 294.001L7.03311 291.09L9.57649 288.118L12.6896 285.125L16.2346 282.146L20.0737 279.209L24.0744 276.338L28.1132 273.55L32.0784 270.854L35.8712 268.257L39.4062 265.759L42.6118 263.355L45.4286 261.038L47.8092 258.798L49.7164 256.623L51.1225 254.497L52.0083 252.407L52.362 250.336L52.1791 248.268L51.4619 246.185L50.2198 244.073L48.4696 241.915L46.2362 239.697L43.5537 237.406L40.4661 235.031L37.0288 232.563L33.3096 229.998L29.3892 227.333L25.3623 224.574L21.3366 221.727L17.432 218.809L13.7786 215.841L10.5128 212.848L7.77319 209.866L5.69445 206.931L4.40101 204.086L4 201.376L4.5746 198.843L6.17817 196.529L8.82995 194.47L12.5129 192.695L17.1738 191.223L22.726 190.064L29.0541 189.215L36.0208 188.664L43.4742 188.389L51.2555 188.359L59.2067 188.538L67.1767 188.883L75.0261 189.35L82.6307 189.895L89.8829 190.472L96.6922 191.038L102.984 191.55L108.697 191.97L113.784 192.258L118.202 192.378L121.918 192.291L124.897 191.959L127.103 191.341L128.495 190.389L129.023 189.052L128.618 187.264L127.195 184.947L124.639 182.006L120.797 178.317L115.47 173.722L108.388 168.017L99.1947 160.929L87.4064 152.097L87.8484 150.067L101.511 155.92L112.341 160.387L120.9 163.708L127.607 166.059L132.776 167.572L136.646 168.342L139.403 168.442L141.188 167.921L142.114 166.817L142.27 165.156L141.727 162.956L140.548 160.23L138.787 156.988L136.494 153.24L133.718 148.997L130.514 144.276L126.937 139.1L123.053 133.5L118.934 127.521L114.665 121.217L110.335 114.66L106.048 107.934L101.91 101.137L98.0326 94.3786L94.5277 87.7769L91.501 81.4541L89.0483 75.5309L87.2498 70.1204L86.1656 65.3222L85.8321 61.2168L86.26 57.861L87.4339 55.285L89.3139 53.4913L91.8383 52.4551L94.9283 52.1273L98.4926 52.4377L102.433 53.3001L106.648 54.6172L111.04 56.2859L115.518 58.2015L119.997 60.2617L124.404 62.3698L128.677 64.4365L132.766 66.3814L136.631 68.1334L140.242 69.6309L143.577 70.8215L146.626 71.6612L149.381 72.1136L151.842 72.1497L154.015 71.7469L155.908 70.8889L157.534 69.5649L158.91 67.7707L160.056 65.5079L160.993 62.7856L161.749 59.6202L162.352 56.0373L162.835 52.0725L163.233 47.7731L163.586 43.1986L163.937 38.4225L164.329 33.5324L164.811 28.63L165.428 23.83L166.227 19.2584L167.253 15.0489L168.544 11.3382L170.131 8.26114L172.039 5.94308L174.28 4.49373L176.853 4L179.746 4.52012L182.934 6.07918L186.381 8.66667L190.04 12.2364L193.859 16.7089L197.782 21.9759L201.749 27.9065L205.705 34.3544L209.599 41.1654L213.386 48.1845L217.029 55.2621L220.497 62.2586L223.772 69.0477L226.84 75.5181L229.694 81.5738L232.337 87.1331L234.774 92.1269L237.013 96.4961L239.069 100.188L240.957 103.155L242.693 105.347L244.296 106.711L245.786 107.185L247.185 106.693L248.514 105.141L249.798 102.404L251.065 98.324L252.346 92.6932L253.679 85.2378L255.112 75.5957L256.704 63.283L258.534 47.6469L260.492 56.275L262.186 70.0814L263.686 80.9301L265.061 89.3785L266.362 95.8422L267.631 100.634L268.903 103.989L270.207 106.091L271.57 107.076L273.013 107.053L274.56 106.105L276.231 104.302L278.043 101.699L280.017 98.3477L282.167 94.2957L284.508 89.5935L287.051 84.2964L289.804 78.4686L292.77 72.1853L295.947 65.5355L299.325 58.6233L302.888 51.5678L306.61 44.5025L310.458 37.5729L314.391 30.9321L318.359 24.7355L322.31 19.134L326.186 14.2668L329.929 10.2539L333.483 7.18919L336.8 5.13522L339.838 4.11967L342.566 4.1343L344.966 5.13627L347.032 7.05169L348.771 9.78098L350.2 13.2053L351.348 17.1935L352.25 21.6092L352.949 26.3163L353.489 31.1848L353.918 36.0944L354.283 40.9367L354.63 45.6175L355.001 50.0567L355.439 54.188L355.98 57.9584L356.659 61.3271L357.506 64.2637L358.55 66.7476L359.813 68.7664L361.317 70.3148L363.081 71.3945L365.119 72.0132L367.441 72.1843L370.056 71.9276L372.964 71.2689L376.164 70.241L379.645 68.8841L383.392 67.2465L387.378 65.3855L391.569 63.3676L395.919 61.2687L400.372 59.1739L404.86 57.1768L409.304 55.3771L413.616 53.8789L417.7 52.7866L421.456 52.2009L424.785 52.214L427.59 52.9042L429.787 54.3313L431.305 56.5322L432.092 59.5174L432.123 63.2702L431.395 67.746L429.931 72.8753L427.782 78.567L425.019 84.7136L421.73 91.1973L418.017 97.896L413.989 104.689L409.759 111.462L405.437 118.111L401.127 124.545L396.925 130.687L392.919 136.475L389.187 141.858L385.797 146.8L382.81 151.274L380.28 155.26L378.258 158.745L376.794 161.719L375.941 164.172L375.755 166.092L376.302 167.464L377.665 168.267L379.942 168.47L383.26 168.028L387.782 166.88L393.72 164.943L401.349 162.105L411.034 158.211L423.262 153.055L437.36 147.124L424.113 156.954L413.749 164.823L405.71 171.15L399.582 176.246L395.06 180.345L391.911 183.627L389.963 186.228L389.084 188.258L389.175 189.802L390.162 190.931L391.985 191.702L394.599 192.165L397.967 192.364L402.054 192.339L406.826 192.126L412.245 191.765L418.268 191.292L424.838 190.746L431.889 190.169L439.337 189.604L447.084 189.094L455.013 188.684L462.992 188.421L470.873 188.346L478.503 188.5L485.722 188.915L492.374 189.62L498.312 190.63L503.412 191.953L507.571 193.585L510.72 195.512L512.824 197.708L513.886 200.141L513.942 202.772L513.063 205.558L511.345 208.455L508.905 211.42L505.873 214.412L502.388 217.396L498.586 220.341L494.603 223.224L490.562 226.026L486.578 228.737L482.752 231.35L479.171 233.864L475.909 236.282L473.026 238.612L470.573 240.864L468.589 243.049L467.101 245.181L466.132 247.276L465.693 249.349L465.666 250.007Z" stroke="#0D0029" stroke-opacity="0.12" stroke-width="6"/>
<path d="M394.092 250.005V250.005ZM394.092 250.005L394.267 251.351L394.789 252.708L395.652 254.086L396.844 255.496L398.348 256.946L400.14 258.445L402.191 259.999L404.464 261.615L406.912 263.294L409.482 265.038L412.111 266.842L414.728 268.702L417.252 270.607L419.599 272.542L421.678 274.489L423.401 276.427L424.679 278.328L425.434 280.167L425.597 281.914L425.118 283.541L423.964 285.021L422.128 286.333L419.623 287.457L416.489 288.382L412.784 289.104L408.588 289.625L403.99 289.953L399.092 290.105L393.997 290.101L388.807 289.966L383.619 289.727L378.524 289.413L373.601 289.053L368.917 288.677L364.53 288.313L360.488 287.987L356.827 287.726L353.58 287.555L350.772 287.497L348.426 287.577L346.563 287.82L345.208 288.255L344.388 288.912L344.138 289.826L344.503 291.04L345.542 292.607L347.334 294.592L349.982 297.078L353.623 300.173L358.44 304.015L364.677 308.789L372.664 314.743L369.41 314.349L360.829 310.697L354.029 307.919L348.66 305.866L344.461 304.428L341.237 303.524L338.837 303.096L337.147 303.097L336.077 303.498L335.558 304.275L335.532 305.412L335.954 306.898L336.785 308.725L337.99 310.887L339.537 313.378L341.392 316.188L343.522 319.308L345.888 322.721L348.447 326.406L351.15 330.332L353.943 334.463L356.764 338.75L359.548 343.138L362.222 347.561L364.715 351.947L366.954 356.218L368.871 360.295L370.405 364.1L371.505 367.561L372.135 370.614L372.273 373.209L371.916 375.312L371.075 376.907L369.78 377.994L368.073 378.592L366.005 378.736L363.639 378.473L361.039 377.86L358.269 376.962L355.394 375.847L352.472 374.581L349.558 373.232L346.697 371.861L343.93 370.525L341.287 369.277L338.793 368.161L336.468 367.217L334.323 366.476L332.367 365.969L330.602 365.717L329.029 365.738L327.642 366.046L326.437 366.652L325.404 367.562L324.532 368.778L323.808 370.299L323.217 372.117L322.742 374.22L322.363 376.593L322.058 379.209L321.805 382.038L321.577 385.038L321.346 388.161L321.083 391.348L320.758 394.532L320.339 397.637L319.796 400.58L319.102 403.273L318.231 405.627L317.164 407.555L315.886 408.978L314.392 409.825L312.681 410.043L310.763 409.598L308.657 408.476L306.387 406.688L303.983 404.268L301.481 401.271L298.918 397.77L296.331 393.851L293.757 389.612L291.229 385.152L288.774 380.573L286.417 375.971L284.176 371.436L282.063 367.047L280.086 362.877L278.248 358.985L276.547 355.424L274.98 352.238L273.54 349.463L272.219 347.134L271.005 345.282L269.889 343.94L268.856 343.141L267.896 342.929L266.992 343.355L266.132 344.482L265.298 346.394L264.473 349.199L263.634 353.038L262.757 358.097L261.81 364.623L260.751 372.946L259.528 383.512L258.275 374.465L257.194 365.819L256.232 359.031L255.346 353.756L254.503 349.737L253.677 346.777L252.846 344.731L251.991 343.485L251.096 342.953L250.145 343.067L249.125 343.775L248.023 345.033L246.825 346.806L245.522 349.062L244.101 351.767L242.555 354.891L240.876 358.395L239.06 362.237L237.105 366.367L235.013 370.725L232.792 375.242L230.452 379.84L228.012 384.429L225.494 388.914L222.925 393.195L220.338 397.171L217.768 400.745L215.254 403.828L212.832 406.344L210.538 408.235L208.404 409.464L206.455 410.017L204.711 409.903L203.181 409.153L201.869 407.818L200.769 405.965L199.869 403.673L199.148 401.028L198.583 398.119L198.146 395.034L197.807 391.858L197.537 388.666L197.303 385.529L197.076 382.505L196.829 379.646L196.534 376.994L196.169 374.581L195.71 372.433L195.139 370.568L194.437 369L193.59 367.736L192.583 366.777L191.406 366.123L190.049 365.767L188.505 365.701L186.771 365.911L184.845 366.379L182.73 367.084L180.433 367.998L177.965 369.089L175.345 370.319L172.595 371.644L169.746 373.013L166.838 374.37L163.914 375.653L161.027 376.797L158.237 377.735L155.605 378.397L153.197 378.72L151.078 378.644L149.31 378.121L147.946 377.114L147.031 375.601L146.595 373.578L146.654 371.059L147.207 368.076L148.234 364.676L149.702 360.921L151.561 356.882L153.753 352.637L156.211 348.264L158.861 343.841L161.632 339.443L164.452 335.136L167.254 330.977L169.975 327.016L172.561 323.291L174.96 319.833L177.13 316.665L179.032 313.804L180.63 311.262L181.892 309.047L182.784 307.166L183.274 305.625L183.322 304.432L182.885 303.597L181.907 303.135L180.321 303.068L178.041 303.426L174.957 304.25L170.926 305.598L165.758 307.547L159.207 310.201L150.937 313.701L144.718 315.821L153.022 309.651L159.513 304.707L164.538 300.73L168.353 297.527L171.149 294.952L173.069 292.893L174.223 291.264L174.691 289.998L174.535 289.039L173.803 288.344L172.531 287.876L170.748 287.604L168.477 287.499L165.741 287.537L162.562 287.692L158.966 287.941L154.982 288.258L150.647 288.618L146.007 288.994L141.117 289.358L136.044 289.681L130.866 289.934L125.67 290.088L120.553 290.115L115.616 289.989L110.964 289.69L106.697 289.2L102.909 288.511L99.6794 287.618L97.0714 286.525L95.1269 285.242L93.8645 283.787L93.2792 282.182L93.343 280.452L94.0076 278.626L95.2077 276.733L96.8651 274.799L98.8939 272.852L101.204 270.914L103.706 269.003L106.313 267.135L108.945 265.321L111.529 263.568L114.001 261.878L116.305 260.252L118.394 258.688L120.229 257.181L121.781 255.724L123.024 254.309L123.94 252.926L124.517 251.566L124.748 250.219L124.629 248.873L124.161 247.518L123.352 246.144L122.211 244.74L120.756 243.297L119.008 241.807L116.995 240.261L114.755 238.656L112.332 236.987L109.777 235.253L107.153 233.458L104.529 231.606L101.984 229.708L99.6036 227.777L97.4753 225.83L95.6899 223.889L94.3353 221.98L93.4923 220.13L93.231 218.366L93.6055 216.718L94.6505 215.213L96.3786 213.873L98.7787 212.718L101.816 211.761L105.434 211.006L109.558 210.454L114.099 210.096L118.956 209.917L124.027 209.898L129.208 210.014L134.402 210.238L139.518 210.542L144.474 210.897L149.2 211.272L153.637 211.64L157.737 211.974L161.461 212.247L164.775 212.434L167.655 212.512L170.076 212.455L172.018 212.24L173.455 211.837L174.363 211.218L174.706 210.348L174.443 209.185L173.515 207.678L171.85 205.764L169.346 203.364L165.874 200.375L161.259 196.663L155.268 192.052L147.586 186.306L147.874 184.985L156.778 188.793L163.836 191.699L169.413 193.86L173.784 195.39L177.152 196.374L179.675 196.875L181.471 196.94L182.635 196.601L183.238 195.883L183.339 194.802L182.986 193.371L182.218 191.597L181.07 189.488L179.575 187.05L177.767 184.289L175.678 181.218L173.347 177.85L170.816 174.207L168.132 170.317L165.349 166.216L162.528 161.95L159.734 157.575L157.037 153.152L154.511 148.756L152.227 144.461L150.254 140.347L148.656 136.494L147.484 132.974L146.777 129.852L146.56 127.181L146.839 124.998L147.604 123.322L148.829 122.155L150.474 121.481L152.488 121.268L154.81 121.469L157.378 122.031L160.125 122.887L162.988 123.973L165.905 125.219L168.824 126.56L171.696 127.931L174.481 129.276L177.146 130.541L179.665 131.681L182.018 132.655L184.192 133.43L186.178 133.976L187.974 134.27L189.578 134.294L190.993 134.032L192.227 133.473L193.287 132.612L194.184 131.445L194.93 129.973L195.541 128.202L196.034 126.142L196.427 123.811L196.741 121.232L197.001 118.435L197.231 115.459L197.459 112.351L197.715 109.17L198.029 105.981L198.431 102.858L198.952 99.8836L199.621 97.145L200.462 94.7309L201.496 92.729L202.74 91.2209L204.2 90.278L205.877 89.9568L207.762 90.2952L209.84 91.3095L212.086 92.9928L214.471 95.3153L216.96 98.225L219.516 101.652L222.101 105.51L224.679 109.705L227.217 114.136L229.685 118.702L232.059 123.307L234.319 127.859L236.453 132.276L238.452 136.485L240.313 140.425L242.035 144.042L243.623 147.291L245.082 150.133L246.422 152.535L247.652 154.465L248.784 155.891L249.828 156.779L250.8 157.087L251.711 156.767L252.577 155.757L253.414 153.977L254.239 151.322L255.074 147.659L255.943 142.809L256.877 136.536L257.915 128.525L259.107 118.353L260.383 123.966L261.487 132.948L262.465 140.006L263.36 145.503L264.208 149.708L265.035 152.825L265.865 155.008L266.715 156.375L267.602 157.016L268.543 157.001L269.551 156.385L270.64 155.212L271.821 153.518L273.107 151.338L274.508 148.702L276.034 145.642L277.691 142.196L279.485 138.405L281.419 134.317L283.489 129.991L285.69 125.494L288.012 120.904L290.438 116.307L292.945 111.799L295.508 107.478L298.094 103.447L300.669 99.8027L303.195 96.6362L305.634 94.0255L307.95 92.0316L310.112 90.6953L312.092 90.0346L313.87 90.0442L315.434 90.696L316.78 91.9422L317.913 93.7178L318.844 95.9456L319.592 98.5403L320.18 101.413L320.636 104.475L320.988 107.643L321.268 110.837L321.505 113.987L321.731 117.032L321.973 119.92L322.259 122.608L322.611 125.061L323.054 127.253L323.606 129.163L324.286 130.779L325.109 132.093L326.09 133.1L327.239 133.802L328.567 134.205L330.08 134.316L331.784 134.149L333.679 133.721L335.765 133.052L338.034 132.169L340.475 131.104L343.073 129.893L345.804 128.58L348.639 127.215L351.541 125.852L354.466 124.553L357.362 123.382L360.172 122.407L362.833 121.697L365.281 121.315L367.45 121.324L369.279 121.773L370.71 122.701L371.699 124.133L372.213 126.075L372.233 128.517L371.758 131.429L370.804 134.766L369.404 138.469L367.603 142.468L365.459 146.686L363.04 151.044L360.415 155.463L357.658 159.87L354.842 164.196L352.033 168.381L349.295 172.377L346.684 176.142L344.252 179.645L342.043 182.86L340.096 185.77L338.447 188.364L337.129 190.631L336.176 192.566L335.619 194.162L335.498 195.411L335.855 196.304L336.743 196.826L338.227 196.958L340.389 196.67L343.336 195.924L347.206 194.664L352.177 192.817L358.489 190.283L366.458 186.929L375.645 183.07L367.012 189.466L360.259 194.585L355.019 198.701L351.026 202.017L348.079 204.684L346.027 206.819L344.757 208.511L344.185 209.832L344.244 210.836L344.887 211.571L346.075 212.072L347.779 212.374L349.974 212.503L352.637 212.487L355.747 212.348L359.279 212.113L363.203 211.805L367.485 211.451L372.08 211.075L376.934 210.707L381.983 210.375L387.15 210.109L392.349 209.938L397.486 209.889L402.458 209.989L407.162 210.26L411.497 210.718L415.367 211.375L418.691 212.236L421.401 213.298L423.453 214.551L424.824 215.98L425.516 217.563L425.553 219.274L424.98 221.087L423.86 222.972L422.27 224.9L420.294 226.847L418.023 228.788L415.546 230.704L412.95 232.58L410.317 234.403L407.72 236.167L405.227 237.866L402.893 239.502L400.767 241.076L398.889 242.591L397.29 244.056L395.997 245.478L395.027 246.865L394.396 248.228L394.11 249.576L394.092 250.005Z" stroke="#0D0029" stroke-opacity="0.12" stroke-width="6"/>
</svg>
